<svg width="15" height="15" viewBox="0 0 15 15" fill="none" xmlns="http://www.w3.org/2000/svg">
<path d="M11.68 8.32V6.68H8.32V3.32H6.68V6.68H3.32V8.32H6.68V11.68H8.32V8.32H11.68ZM13.32 -4.76837e-07C13.7733 -4.76837e-07 14.1667 0.166666 14.5 0.499999C14.8333 0.833333 15 1.22667 15 1.68V13.32C15 13.7733 14.8333 14.1667 14.5 14.5C14.1667 14.8333 13.7733 15 13.32 15H1.68C1.21333 15 0.813333 14.8333 0.48 14.5C0.16 14.1667 0 13.7733 0 13.32V1.68C0 1.22667 0.16 0.833333 0.48 0.499999C0.813333 0.166666 1.21333 -4.76837e-07 1.68 -4.76837e-07H13.32Z" fill="white"/>
</svg>
