<svg width="30" height="30" viewBox="0 0 30 30" fill="none" xmlns="http://www.w3.org/2000/svg">
<path d="M20.2814 18.3435C23.0947 18.2938 23.7138 14.4236 21.0591 13.502L17.9939 16.8262C18.3764 17.7268 19.2781 18.3435 20.2814 18.3435Z" fill="white"/>
<path d="M29.3603 13.3208C28.9663 10.9566 27.8586 9.13177 26.1388 7.99234C25.3377 8.86182 23.1306 11.2546 22.2976 12.1583C23.6378 12.8847 24.4957 14.2912 24.4957 15.8605C24.5051 19.4975 20.1162 21.4289 17.4416 18.973C17.1866 19.5372 16.8289 20.0564 16.3783 20.507C14.5925 22.4432 9.06059 22.9112 6.69924 22.8424C6.63024 20.4752 7.1002 14.946 9.03469 13.1633C10.0218 12.1768 11.3095 11.6708 12.6058 11.646C14.0245 10.3334 15.9918 8.51296 17.4047 7.20541C15.4421 7.72257 12.5676 9.09173 11.6908 7.79907C11.2805 6.8307 13.1459 4.58051 11.6741 2.69212C10.4679 1.17763 7.7684 1.46211 6.24289 2.53808C-1.18469 7.66632 -2.17787 18.9335 4.30632 25.2015C12.2441 33.2003 26.0909 29.5765 29.133 18.737C29.2982 18.0548 29.771 15.8183 29.3603 13.3208Z" fill="white"/>
<path d="M16.3781 13.1635C16.8605 13.6458 17.236 14.206 17.4933 14.8158C18.4758 13.7518 23.663 8.12393 24.5243 7.19058L29.1299 2.19555C29.633 1.64978 29.6463 0.842081 29.1605 0.355732C28.6736 -0.130617 27.8647 -0.11677 27.319 0.38804L20.5834 6.62173C19.1209 7.97479 16.2119 10.6679 14.7195 12.0489C15.3229 12.3016 15.8878 12.6731 16.3781 13.1635Z" fill="white"/>
<path d="M14.2309 13.7258C12.9168 13.0864 11.3244 13.3239 10.2588 14.3858C9.15812 15.359 8.53319 19.0626 8.46973 21.0713C10.4842 21.0058 14.1789 20.3845 15.1546 19.2821C15.8088 18.628 16.1688 17.7585 16.1688 16.8343C16.1686 15.9088 15.8082 15.0393 15.1546 14.3864V14.3858C14.8776 14.1083 14.565 13.8885 14.2309 13.7258Z" fill="white"/>
</svg>
