<svg width="23" height="25" viewBox="0 0 23 25" fill="none" xmlns="http://www.w3.org/2000/svg">
<path opacity="0.4" fill-rule="evenodd" clip-rule="evenodd" d="M7.43376 3.85198H15.1121V2.06421H7.43376V3.85198ZM5.68707 2.13763V2.14653C5.08768 2.20104 4.49473 2.32007 3.91786 2.49919V2.49251C3.90071 2.49972 3.88457 2.50527 3.86907 2.5106C3.84873 2.51759 3.82951 2.5242 3.81064 2.53367C3.76453 2.5448 3.7195 2.56149 3.67661 2.58262C3.55008 2.62378 3.42356 2.67273 3.30454 2.7228C3.27291 2.73503 3.24128 2.74922 3.20965 2.7634C3.17801 2.77759 3.14638 2.79177 3.11475 2.80401C3.07133 2.82459 3.02602 2.84712 2.98072 2.86965C2.93542 2.89217 2.89012 2.9147 2.84669 2.93528L2.63224 3.05877C2.59259 3.07899 2.55589 3.10271 2.51844 3.12691C2.49614 3.14132 2.47357 3.1559 2.44996 3.17002C2.12721 3.37805 1.82806 3.62169 1.55785 3.8987L1.54177 3.91539C1.50628 3.95676 1.47094 3.9969 1.43608 4.03649C1.3772 4.10337 1.31968 4.1687 1.26513 4.23578L1.24905 4.25136C0.371951 5.46175 -0.0676696 6.9536 0.00845978 8.46547V8.94496H1.74013V8.46102C1.74013 6.35396 2.41136 5.04234 3.905 4.37039C4.47543 4.12898 5.07803 3.97991 5.69136 3.9254H5.70744V2.14541L5.68707 2.13763ZM21.2475 4.22911L21.255 4.24468C22.131 5.45619 22.5685 6.94915 22.4913 8.46102V8.94496H20.7607V8.44879C20.7971 7.55657 20.6181 6.6688 20.2385 5.8667C19.8739 5.18029 19.2906 4.64741 18.5862 4.35816C18.0254 4.11675 17.4314 3.96656 16.8255 3.91316V2.14208C17.4249 2.1977 18.0179 2.31563 18.5958 2.49474V2.48584C18.6283 2.50057 18.6531 2.50933 18.6956 2.52437L18.703 2.527C18.7228 2.53398 18.7412 2.54096 18.7594 2.54786C18.7847 2.55745 18.8096 2.56689 18.8371 2.57595C18.9556 2.61484 19.0665 2.66069 19.1806 2.70785L19.2006 2.71612C19.2532 2.73461 19.3028 2.75754 19.3475 2.7782C19.3619 2.78489 19.3759 2.79135 19.3893 2.79733C19.4836 2.8385 19.5801 2.88745 19.6573 2.92861C19.7088 2.95533 19.759 2.98392 19.806 3.01073C19.8314 3.02523 19.856 3.03921 19.8793 3.05209C19.9177 3.07331 19.9511 3.09601 19.9832 3.11784C20.0067 3.13378 20.0295 3.14925 20.053 3.16334C20.3768 3.37249 20.6792 3.61724 20.9526 3.89202L20.9623 3.90871C21.063 4.00995 21.1585 4.11675 21.2475 4.22911Z" fill="#5669FF"/>
<path d="M16.875 0.89616V4.83558C16.875 5.33193 16.4722 5.73396 15.975 5.73396C15.4777 5.73396 15.075 5.33193 15.075 4.83558V0.905144C15.0705 0.408786 15.471 0.00339014 15.9682 2.1196e-05C16.4655 -0.00334775 16.8716 0.39531 16.875 0.891668V0.89616Z" fill="#5669FF"/>
<path d="M7.425 0.91037V4.84005C7.425 5.33856 7.02176 5.74275 6.52444 5.74275C6.02712 5.74275 5.625 5.33856 5.625 4.84005V0.91037C5.625 0.411862 6.02712 0.00878906 6.52444 0.00878906C7.02176 0.00878906 7.425 0.411862 7.425 0.91037Z" fill="#5669FF"/>
<path fill-rule="evenodd" clip-rule="evenodd" d="M0 18.6376V8.94482H22.5V18.6376C22.5 22.8644 20.1395 24.9999 15.4614 24.9999H7.0279C2.36052 24.9999 0 22.8644 0 18.6376ZM5.07513 14.3334C5.07513 14.9198 5.5365 15.3956 6.10517 15.3956C6.68457 15.3956 7.14594 14.9088 7.13521 14.3223C7.13521 13.7359 6.67384 13.2601 6.1159 13.2601H6.10517C5.5365 13.2601 5.07513 13.747 5.07513 14.3334ZM10.2146 14.3334C10.2146 14.9198 10.6867 15.3956 11.2554 15.3956C11.824 15.3956 12.2854 14.9198 12.2854 14.3223C12.2854 13.747 11.824 13.2712 11.2554 13.2601H11.2446C10.676 13.2712 10.2146 13.747 10.2146 14.3334ZM16.3949 15.3956C15.8262 15.3956 15.3648 14.9198 15.3648 14.3334C15.3648 13.747 15.8155 13.2712 16.3949 13.2712C16.9635 13.2712 17.4249 13.747 17.4249 14.3334C17.4249 14.9198 16.9635 15.3956 16.3949 15.3956ZM16.3949 19.9322C15.8262 19.9322 15.3648 19.4564 15.3541 18.87C15.3541 18.2836 15.8155 17.8078 16.3841 17.8078H16.3949C16.9635 17.8078 17.4249 18.2836 17.4249 18.87C17.4249 19.4564 16.9635 19.9322 16.3949 19.9322ZM11.2554 19.9322C10.6867 19.9322 10.2146 19.4564 10.2146 18.87C10.2146 18.2836 10.676 17.8078 11.2446 17.7967H11.2554C11.824 17.8078 12.2747 18.2836 12.2854 18.8589C12.2854 19.4564 11.824 19.9322 11.2554 19.9322ZM6.10515 19.9322C5.53648 19.9322 5.07511 19.4564 5.07511 18.87C5.06438 18.2836 5.52575 17.7967 6.10515 17.7967C6.67382 17.7967 7.13519 18.2725 7.13519 18.8589C7.13519 19.4454 6.67382 19.9322 6.10515 19.9322Z" fill="#5669FF"/>
</svg>
