<svg width="18" height="18" viewBox="0 0 18 18" fill="none" xmlns="http://www.w3.org/2000/svg">
<g clip-path="url(#clip0_704_6845)">
<path d="M17.2195 15.0309L10.2873 8.09865L2.18815 -0.000488281H1.55519L1.42595 0.327918C1.08484 1.19474 0.93909 2.08131 1.00452 2.89167C1.07911 3.81539 1.43002 4.61512 2.0194 5.2045L8.34202 11.5271L9.17597 10.6932L15.0212 17.2293C15.6027 17.8108 16.6035 17.8453 17.2195 17.2293C17.8256 16.6232 17.8256 15.637 17.2195 15.0309Z" fill="white"/>
<path d="M5.41176 10.0637L0.459912 15.0156C-0.146143 15.6216 -0.146143 16.6078 0.459912 17.2139C1.03565 17.7896 2.03164 17.8404 2.65821 17.2139L7.61009 12.262L5.41176 10.0637Z" fill="white"/>
<path d="M16.9283 2.94282L14.1193 5.75176L13.3865 5.01899L16.1955 2.21001L15.4627 1.47724L12.6538 4.28618L11.921 3.5534L14.73 0.74446L13.9972 0.0117188L10.3334 3.6756C9.88513 4.12382 9.6175 4.71896 9.57965 5.35147C9.57009 5.51172 9.53376 5.66934 9.47351 5.81927L11.8536 8.19932C12.0035 8.139 12.1612 8.10271 12.3214 8.09315C12.9539 8.05541 13.549 7.7877 13.9972 7.33948L17.6611 3.67563L16.9283 2.94282Z" fill="white"/>
</g>
<defs>
<clipPath id="clip0_704_6845">
<rect width="17.6789" height="17.6789" fill="white"/>
</clipPath>
</defs>
</svg>
