<svg width="386" height="386" viewBox="0 0 386 386" fill="none" xmlns="http://www.w3.org/2000/svg">
<path d="M294.794 0H90.7059C40.6104 0 0 40.5928 0 90.6667V294.667C0 344.74 40.6104 385.333 90.7059 385.333H294.794C344.89 385.333 385.5 344.74 385.5 294.667V90.6667C385.5 40.5928 344.89 0 294.794 0Z" fill="white"/>
<path d="M256.547 188.889C254.835 173.567 247.961 159.282 237.055 148.381C226.149 137.479 211.858 130.609 196.53 128.898V120.889C196.53 116.733 193.128 113.333 188.971 113.333C184.813 113.333 181.412 116.733 181.412 120.889V128.898C166.083 130.609 151.793 137.479 140.887 148.381C129.98 159.282 123.107 173.567 121.395 188.889H113.383C109.225 188.889 105.824 192.289 105.824 196.444C105.824 200.6 109.225 204 113.383 204H121.395C123.107 219.322 129.98 233.606 140.887 244.508C151.793 255.409 166.083 262.28 181.412 263.991V272C181.412 276.155 184.813 279.555 188.971 279.555C193.128 279.555 196.53 276.155 196.53 272V263.991C211.858 262.28 226.149 255.409 237.055 244.508C247.961 233.606 254.835 219.322 256.547 204H264.559C268.716 204 272.118 200.6 272.118 196.444C272.118 192.289 268.716 188.889 264.559 188.889H256.547ZM188.971 249.333C159.718 249.333 136.059 225.684 136.059 196.444C136.059 167.204 159.718 143.555 188.971 143.555C218.223 143.555 241.883 167.204 241.883 196.444C241.883 225.684 218.223 249.333 188.971 249.333Z" fill="#5669FF"/>
<path d="M188.971 226.667C205.669 226.667 219.206 213.136 219.206 196.444C219.206 179.753 205.669 166.222 188.971 166.222C172.272 166.222 158.735 179.753 158.735 196.444C158.735 213.136 172.272 226.667 188.971 226.667Z" fill="#A7B1FE"/>
</svg>
