<svg width="18" height="18" viewBox="0 0 18 18" fill="none" xmlns="http://www.w3.org/2000/svg">
<g clip-path="url(#clip0_704_6822)">
<path d="M5.92775 3.32792V12.1814C5.3641 11.6685 4.61551 11.3556 3.79535 11.3556C2.04638 11.3556 0.623474 12.7785 0.623474 14.5274C0.623474 16.2764 2.04638 17.6993 3.79535 17.6993C5.54215 17.6993 6.96344 16.2799 6.96709 14.5341H6.96722V8.20764L16.0761 5.47033V10.0475C15.5125 9.53475 14.7639 9.22168 13.9438 9.22168C12.1948 9.22168 10.7719 10.6446 10.7719 12.3936C10.7719 14.1425 12.1948 15.5654 13.9438 15.5654C15.6868 15.5654 17.1058 14.1521 17.1154 12.4113H17.1156V-0.0341797L5.92775 3.32792Z" fill="white"/>
</g>
<defs>
<clipPath id="clip0_704_6822">
<rect width="17.7335" height="17.7335" fill="white"/>
</clipPath>
</defs>
</svg>
