<svg width="22" height="20" viewBox="0 0 22 20" fill="none" xmlns="http://www.w3.org/2000/svg">
<path opacity="0.3" d="M20.0165 17.3174H1.0535C0.471666 17.3174 0 17.789 0 18.3709V18.3709C0 18.9527 0.471666 19.4244 1.0535 19.4244H20.0165C20.5983 19.4244 21.07 18.9527 21.07 18.3709C21.07 17.789 20.5983 17.3174 20.0165 17.3174Z" fill="#00F8FF"/>
<path d="M5.84513 5.03572C5.51267 5.43465 4.93909 5.53182 4.49378 5.26469L1.59551 3.52569C0.893336 3.10438 0 3.61017 0 4.42905V14.1569C0 14.7387 0.47167 15.2103 1.0535 15.2103H20.0165C20.5983 15.2103 21.07 14.7387 21.07 14.1569V4.42905C21.07 3.61017 20.1766 3.10438 19.4744 3.52569L16.5762 5.26469C16.1308 5.53182 15.5573 5.43465 15.2248 5.03572L11.3443 0.379064C10.9231 -0.126355 10.1468 -0.126355 9.72563 0.379064L5.84513 5.03572Z" fill="#00F8FF"/>
</svg>
