<svg width="18" height="18" viewBox="0 0 18 18" fill="none" xmlns="http://www.w3.org/2000/svg">
<g clip-path="url(#clip0_704_6830)">
<path d="M8.31155 2.37366C8.19583 1.61168 7.96183 0.840342 7.62098 0.0866699C5.85096 0.335562 4.24885 1.10686 2.9754 2.23993L7.37482 6.63939C8.23438 5.54625 8.5666 4.05318 8.31155 2.37366Z" fill="white"/>
<path d="M7.37941 8.1123C6.32871 8.97986 4.97688 9.4331 3.45807 9.43314C3.05567 9.43314 2.6417 9.40134 2.21839 9.33709C1.47885 9.22477 0.733384 9.01408 0.00180929 8.71348C0.00101267 8.76387 -6.10352e-05 8.81423 -6.10352e-05 8.86483C-6.10352e-05 11.1264 0.847093 13.1897 2.24073 14.756L8.13194 8.86483L7.37941 8.1123Z" fill="white"/>
<path d="M6.64025 7.37257L2.24079 2.97314C1.10772 4.24659 0.336416 5.84867 0.0875244 7.61869C0.841231 7.95954 1.6126 8.1936 2.37448 8.30932C4.0541 8.56441 5.54714 8.23212 6.64025 7.37257Z" fill="white"/>
<path d="M15.3589 9.42064C13.6794 9.16552 12.1863 9.49781 11.0932 10.3574L15.4926 14.7568C16.6257 13.4833 17.397 11.8813 17.6459 10.1112C16.8923 9.77043 16.1209 9.5364 15.3589 9.42064Z" fill="white"/>
<path d="M9.61897 10.3529L8.86662 9.60059L2.9754 15.4918C4.54173 16.8855 6.60508 17.7326 8.86662 17.7326C8.91722 17.7326 8.96758 17.7315 9.01797 17.7307C8.71741 16.9991 8.50668 16.2536 8.39436 15.5141C8.08749 13.4931 8.52158 11.682 9.61897 10.3529Z" fill="white"/>
<path d="M8.11426 7.37818L8.86661 8.13054L14.7578 2.23932C13.1915 0.845654 11.1281 -0.00146484 8.86661 -0.00146484C8.81601 -0.00146484 8.76565 -0.000391138 8.71526 0.000440118C9.01582 0.73198 9.22655 1.47737 9.33887 2.21702C9.64574 4.23804 9.21165 6.04914 8.11426 7.37818Z" fill="white"/>
<path d="M9.42147 15.3575C9.53715 16.1194 9.77126 16.8908 10.1121 17.6445C11.8821 17.3956 13.4842 16.6243 14.7576 15.4913L10.3582 11.0918C9.49864 12.1849 9.16641 13.678 9.42147 15.3575Z" fill="white"/>
<path d="M10.354 9.61675C11.683 8.51932 13.4941 8.08526 15.5151 8.39214C16.2548 8.50446 17.0002 8.71522 17.7317 9.01575C17.7326 8.96536 17.7336 8.915 17.7336 8.86436C17.7336 6.60282 16.8865 4.53947 15.4928 2.97314L9.60162 8.86439L10.354 9.61675Z" fill="white"/>
</g>
<defs>
<clipPath id="clip0_704_6830">
<rect width="17.7335" height="17.7335" fill="white"/>
</clipPath>
</defs>
</svg>
